<mxfile host="app.diagrams.net" modified="2021-09-29T04:18:02.552Z" agent="5.0 (Windows NT 10.0; Win64; x64) AppleWebKit/537.36 (KHTML, like Gecko) Chrome/94.0.4606.61 Safari/537.36" etag="VL8GMFlF8tpVhtPUl3Co" version="15.3.5" type="github">
  <diagram id="Fb7h0GS2-krC9QEjmvzD" name="Page-1">
    <mxGraphModel dx="1304" dy="520" grid="1" gridSize="10" guides="1" tooltips="1" connect="1" arrows="1" fold="1" page="1" pageScale="1" pageWidth="827" pageHeight="1169" math="0" shadow="0">
      <root>
        <mxCell id="0" />
        <mxCell id="1" parent="0" />
        <mxCell id="VDYrmcGq_PD4xRhZut6B-1" value="" style="ellipse;html=1;shape=startState;fillColor=#000000;strokeColor=#ff0000;hachureGap=4;pointerEvents=0;" vertex="1" parent="1">
          <mxGeometry x="225" y="90" width="30" height="30" as="geometry" />
        </mxCell>
        <mxCell id="VDYrmcGq_PD4xRhZut6B-2" value="" style="edgeStyle=orthogonalEdgeStyle;html=1;verticalAlign=bottom;endArrow=open;endSize=8;strokeColor=#ff0000;sourcePerimeterSpacing=8;targetPerimeterSpacing=8;entryX=0.5;entryY=0;entryDx=0;entryDy=0;" edge="1" source="VDYrmcGq_PD4xRhZut6B-1" parent="1" target="VDYrmcGq_PD4xRhZut6B-11">
          <mxGeometry relative="1" as="geometry">
            <mxPoint x="125" y="180" as="targetPoint" />
          </mxGeometry>
        </mxCell>
        <mxCell id="VDYrmcGq_PD4xRhZut6B-11" value="Đợi sửa" style="rounded=1;whiteSpace=wrap;html=1;hachureGap=4;pointerEvents=0;" vertex="1" parent="1">
          <mxGeometry x="180" y="180" width="120" height="60" as="geometry" />
        </mxCell>
        <mxCell id="VDYrmcGq_PD4xRhZut6B-14" value="Sửa&lt;br&gt;status = 1" style="rounded=1;whiteSpace=wrap;html=1;hachureGap=4;pointerEvents=0;" vertex="1" parent="1">
          <mxGeometry x="180" y="290" width="120" height="60" as="geometry" />
        </mxCell>
        <mxCell id="VDYrmcGq_PD4xRhZut6B-16" value="" style="endArrow=classic;html=1;startSize=14;endSize=14;sourcePerimeterSpacing=8;targetPerimeterSpacing=8;exitX=0.5;exitY=1;exitDx=0;exitDy=0;entryX=0.5;entryY=0;entryDx=0;entryDy=0;" edge="1" parent="1" source="VDYrmcGq_PD4xRhZut6B-11" target="VDYrmcGq_PD4xRhZut6B-14">
          <mxGeometry width="50" height="50" relative="1" as="geometry">
            <mxPoint x="390" y="250" as="sourcePoint" />
            <mxPoint x="125" y="310" as="targetPoint" />
          </mxGeometry>
        </mxCell>
        <mxCell id="VDYrmcGq_PD4xRhZut6B-18" value="Đợi phụ tùng&lt;br&gt;status = 2" style="rounded=1;whiteSpace=wrap;html=1;hachureGap=4;pointerEvents=0;" vertex="1" parent="1">
          <mxGeometry x="440" y="290" width="120" height="60" as="geometry" />
        </mxCell>
        <mxCell id="VDYrmcGq_PD4xRhZut6B-19" value="mua phụ tùng" style="endArrow=classic;html=1;startSize=14;endSize=14;sourcePerimeterSpacing=8;targetPerimeterSpacing=8;exitX=1;exitY=0.25;exitDx=0;exitDy=0;entryX=0;entryY=0.25;entryDx=0;entryDy=0;" edge="1" parent="1" source="VDYrmcGq_PD4xRhZut6B-14" target="VDYrmcGq_PD4xRhZut6B-18">
          <mxGeometry x="0.1111" y="5" width="50" height="50" relative="1" as="geometry">
            <mxPoint x="390" y="250" as="sourcePoint" />
            <mxPoint x="440" y="200" as="targetPoint" />
            <mxPoint as="offset" />
          </mxGeometry>
        </mxCell>
        <mxCell id="VDYrmcGq_PD4xRhZut6B-20" value="Sửa xe" style="endArrow=classic;html=1;startSize=14;endSize=14;sourcePerimeterSpacing=8;targetPerimeterSpacing=8;exitX=0;exitY=0.75;exitDx=0;exitDy=0;entryX=1;entryY=0.75;entryDx=0;entryDy=0;" edge="1" parent="1" source="VDYrmcGq_PD4xRhZut6B-18" target="VDYrmcGq_PD4xRhZut6B-14">
          <mxGeometry x="-0.1111" y="-5" width="50" height="50" relative="1" as="geometry">
            <mxPoint x="390" y="240" as="sourcePoint" />
            <mxPoint x="440" y="190" as="targetPoint" />
            <mxPoint as="offset" />
          </mxGeometry>
        </mxCell>
        <mxCell id="VDYrmcGq_PD4xRhZut6B-21" value="Sửa xong&amp;nbsp;&lt;br&gt;status = 3" style="rounded=1;whiteSpace=wrap;html=1;hachureGap=4;pointerEvents=0;" vertex="1" parent="1">
          <mxGeometry x="180" y="420" width="120" height="60" as="geometry" />
        </mxCell>
        <mxCell id="VDYrmcGq_PD4xRhZut6B-23" value="Test xe&lt;br&gt;status = 4" style="rounded=1;whiteSpace=wrap;html=1;hachureGap=4;pointerEvents=0;" vertex="1" parent="1">
          <mxGeometry x="440" y="420" width="120" height="60" as="geometry" />
        </mxCell>
        <mxCell id="VDYrmcGq_PD4xRhZut6B-25" value="" style="endArrow=classic;html=1;startSize=14;endSize=14;sourcePerimeterSpacing=8;targetPerimeterSpacing=8;exitX=1;exitY=0.5;exitDx=0;exitDy=0;entryX=0;entryY=0.5;entryDx=0;entryDy=0;" edge="1" parent="1" source="VDYrmcGq_PD4xRhZut6B-21" target="VDYrmcGq_PD4xRhZut6B-23">
          <mxGeometry width="50" height="50" relative="1" as="geometry">
            <mxPoint x="390" y="420" as="sourcePoint" />
            <mxPoint x="440" y="370" as="targetPoint" />
          </mxGeometry>
        </mxCell>
        <mxCell id="VDYrmcGq_PD4xRhZut6B-26" value="Tiến hành test" style="edgeLabel;html=1;align=center;verticalAlign=middle;resizable=0;points=[];" vertex="1" connectable="0" parent="VDYrmcGq_PD4xRhZut6B-25">
          <mxGeometry x="-0.1556" y="1" relative="1" as="geometry">
            <mxPoint as="offset" />
          </mxGeometry>
        </mxCell>
        <mxCell id="VDYrmcGq_PD4xRhZut6B-27" value="Không đạt" style="endArrow=classic;html=1;startSize=14;endSize=14;sourcePerimeterSpacing=8;targetPerimeterSpacing=8;exitX=0;exitY=0;exitDx=0;exitDy=0;entryX=1;entryY=1;entryDx=0;entryDy=0;" edge="1" parent="1" source="VDYrmcGq_PD4xRhZut6B-23" target="VDYrmcGq_PD4xRhZut6B-14">
          <mxGeometry width="50" height="50" relative="1" as="geometry">
            <mxPoint x="390" y="420" as="sourcePoint" />
            <mxPoint x="180" y="360" as="targetPoint" />
          </mxGeometry>
        </mxCell>
        <mxCell id="VDYrmcGq_PD4xRhZut6B-28" value="" style="ellipse;html=1;shape=endState;fillColor=#000000;strokeColor=#ff0000;hachureGap=4;pointerEvents=0;" vertex="1" parent="1">
          <mxGeometry x="485" y="565" width="30" height="30" as="geometry" />
        </mxCell>
        <mxCell id="VDYrmcGq_PD4xRhZut6B-29" value="Trả khách" style="rounded=1;whiteSpace=wrap;html=1;hachureGap=4;pointerEvents=0;" vertex="1" parent="1">
          <mxGeometry x="180" y="550" width="120" height="60" as="geometry" />
        </mxCell>
        <mxCell id="VDYrmcGq_PD4xRhZut6B-30" value="Sửa xong" style="endArrow=classic;html=1;startSize=14;endSize=14;sourcePerimeterSpacing=8;targetPerimeterSpacing=8;exitX=0.5;exitY=1;exitDx=0;exitDy=0;entryX=0.5;entryY=0;entryDx=0;entryDy=0;" edge="1" parent="1" source="VDYrmcGq_PD4xRhZut6B-14" target="VDYrmcGq_PD4xRhZut6B-21">
          <mxGeometry x="-0.1429" y="-20" width="50" height="50" relative="1" as="geometry">
            <mxPoint x="390" y="420" as="sourcePoint" />
            <mxPoint x="440" y="370" as="targetPoint" />
            <mxPoint as="offset" />
          </mxGeometry>
        </mxCell>
        <mxCell id="VDYrmcGq_PD4xRhZut6B-31" value="Đạt" style="endArrow=classic;html=1;startSize=14;endSize=14;sourcePerimeterSpacing=8;targetPerimeterSpacing=8;exitX=0.5;exitY=1;exitDx=0;exitDy=0;entryX=1;entryY=0.5;entryDx=0;entryDy=0;" edge="1" parent="1" source="VDYrmcGq_PD4xRhZut6B-23" target="VDYrmcGq_PD4xRhZut6B-29">
          <mxGeometry width="50" height="50" relative="1" as="geometry">
            <mxPoint x="390" y="420" as="sourcePoint" />
            <mxPoint x="440" y="370" as="targetPoint" />
          </mxGeometry>
        </mxCell>
        <mxCell id="VDYrmcGq_PD4xRhZut6B-33" value="Không sửa được" style="endArrow=classic;html=1;startSize=14;endSize=14;sourcePerimeterSpacing=8;targetPerimeterSpacing=8;exitX=0;exitY=0.5;exitDx=0;exitDy=0;entryX=-0.017;entryY=0.633;entryDx=0;entryDy=0;entryPerimeter=0;" edge="1" parent="1" source="VDYrmcGq_PD4xRhZut6B-14" target="VDYrmcGq_PD4xRhZut6B-29">
          <mxGeometry width="50" height="50" relative="1" as="geometry">
            <mxPoint x="390" y="420" as="sourcePoint" />
            <mxPoint x="440" y="370" as="targetPoint" />
            <Array as="points">
              <mxPoint x="70" y="320" />
              <mxPoint x="70" y="588" />
            </Array>
          </mxGeometry>
        </mxCell>
        <mxCell id="VDYrmcGq_PD4xRhZut6B-34" value="" style="endArrow=classic;html=1;startSize=14;endSize=14;sourcePerimeterSpacing=8;targetPerimeterSpacing=8;exitX=1;exitY=0.5;exitDx=0;exitDy=0;entryX=0;entryY=0.5;entryDx=0;entryDy=0;" edge="1" parent="1" source="VDYrmcGq_PD4xRhZut6B-29" target="VDYrmcGq_PD4xRhZut6B-28">
          <mxGeometry width="50" height="50" relative="1" as="geometry">
            <mxPoint x="420" y="370" as="sourcePoint" />
            <mxPoint x="470" y="320" as="targetPoint" />
          </mxGeometry>
        </mxCell>
      </root>
    </mxGraphModel>
  </diagram>
</mxfile>
